<svg xmlns="http://www.w3.org/2000/svg" width="32" height="32" viewBox="0 0 32 32" fill="none">
  <rect x="3" y="7" width="8" height="4" rx="1.2" fill="#0071e3"/>
  <rect x="3" y="14" width="8" height="4" rx="1.2" fill="#4a9eff"/>
  <rect x="3" y="21" width="8" height="4" rx="1.2" fill="#0071e3"/>
  <rect x="21" y="7" width="8" height="4" rx="1.2" fill="#4a9eff"/>
  <rect x="21" y="14" width="8" height="4" rx="1.2" fill="#0071e3"/>
  <rect x="21" y="21" width="8" height="4" rx="1.2" fill="#4a9eff"/>
  <path d="M11 9h6.5M16 9l-2-1.6M16 9l-2 1.6" stroke="#5a6470" stroke-width="1.4" stroke-linecap="round" stroke-linejoin="round"/>
  <path d="M11 16h6.5M16 16l-2-1.6M16 16l-2 1.6" stroke="#5a6470" stroke-width="1.4" stroke-linecap="round" stroke-linejoin="round"/>
  <path d="M11 23h6.5M16 23l-2-1.6M16 23l-2 1.6" stroke="#5a6470" stroke-width="1.4" stroke-linecap="round" stroke-linejoin="round"/>
  <path d="M25 3.5l0.7 1.6 1.6 0.7-1.6 0.7-0.7 1.6-0.7-1.6-1.6-0.7 1.6-0.7z" fill="#ffb020"/>
</svg>
