<svg xmlns="http://www.w3.org/2000/svg" width="148" height="64" viewBox="0 0 148 64" fill="none"><path d="M130.341 43.2259C128.932 43.2259 127.581 42.9528 126.287 42.4066C125.022 41.8604 123.886 41.1129 122.88 40.1642C121.874 39.1867 121.083 38.0511 120.508 36.7574C119.933 35.4637 119.646 34.055 119.646 32.5313C119.646 31.0364 119.919 29.6564 120.465 28.3914C121.012 27.0977 121.773 25.9622 122.751 24.9847C123.728 24.0072 124.85 23.2454 126.115 22.6991C127.408 22.1242 128.788 21.8367 130.254 21.8367C132.238 21.8367 134.021 22.311 135.602 23.2597C137.212 24.1797 138.491 25.4447 139.44 27.0546C140.388 28.6646 140.863 30.4757 140.863 32.4882C140.863 34.0694 140.575 35.5212 140 36.8437C139.425 38.1374 138.649 39.2586 137.672 40.2073C136.694 41.156 135.573 41.9035 134.308 42.4497C133.043 42.9672 131.721 43.2259 130.341 43.2259ZM130.254 39.4742C131.462 39.4742 132.583 39.1723 133.618 38.5686C134.653 37.9649 135.487 37.1311 136.119 36.0674C136.752 35.0037 137.068 33.7963 137.068 32.4451C137.068 31.0939 136.766 29.9008 136.162 28.8658C135.587 27.8308 134.782 27.0259 133.747 26.4509C132.712 25.8759 131.534 25.5884 130.211 25.5884C128.946 25.5884 127.796 25.8903 126.761 26.494C125.755 27.0977 124.936 27.9171 124.303 28.952C123.7 29.987 123.398 31.1657 123.398 32.4882C123.398 33.8681 123.714 35.09 124.346 36.1537C124.979 37.1886 125.813 38.008 126.848 38.6117C127.911 39.1867 129.047 39.4742 130.254 39.4742Z" fill="#2A2A2E"></path><path d="M104.936 42.9671C103.643 42.9671 102.406 42.7083 101.228 42.1909C100.049 41.6734 99.0141 40.9403 98.1229 39.9916C97.2604 39.0428 96.5704 37.936 96.0529 36.671C95.5642 35.3773 95.3198 33.9686 95.3198 32.4449C95.3198 30.95 95.5642 29.57 96.0529 28.3051C96.5704 27.0401 97.2604 25.9477 98.1229 25.0277C99.0141 24.079 100.049 23.3459 101.228 22.8284C102.406 22.3109 103.643 22.0522 104.936 22.0522C106.345 22.0522 107.61 22.3109 108.731 22.8284C109.881 23.3459 110.859 24.079 111.664 25.0277C112.497 25.9477 113.13 27.0545 113.561 28.3482C113.992 29.6132 114.208 30.9931 114.208 32.4881C114.237 34.0118 114.021 35.4061 113.561 36.671C113.13 37.936 112.512 39.0428 111.707 39.9916C110.902 40.9403 109.924 41.6734 108.774 42.1909C107.653 42.7083 106.374 42.9671 104.936 42.9671ZM105.497 39.3016C106.704 39.3016 107.783 39.0141 108.731 38.4391C109.709 37.8641 110.471 37.0735 111.017 36.0673C111.592 35.0324 111.879 33.8536 111.879 32.5312C111.879 31.18 111.592 30.0013 111.017 28.9951C110.471 27.9601 109.709 27.1551 108.731 26.5801C107.783 26.0052 106.704 25.7177 105.497 25.7177C104.29 25.7177 103.197 26.0052 102.22 26.5801C101.242 27.1551 100.466 27.9601 99.8909 28.9951C99.3447 30.0013 99.0716 31.18 99.0716 32.5312C99.0716 33.8536 99.3447 35.0324 99.8909 36.0673C100.466 37.0735 101.242 37.8641 102.22 38.4391C103.226 39.0141 104.318 39.3016 105.497 39.3016ZM113.949 42.9671C113.317 42.9671 112.857 42.8521 112.569 42.6221C112.282 42.3921 112.109 42.004 112.052 41.4578V14.4624C112.052 14.0312 112.08 13.6718 112.138 13.3844C112.224 13.0969 112.397 12.8812 112.655 12.7375C112.943 12.565 113.36 12.4788 113.906 12.4788C114.452 12.4788 114.855 12.565 115.114 12.7375C115.401 12.8812 115.588 13.0969 115.674 13.3844C115.76 13.6718 115.803 14.0168 115.803 14.4193V40.9834C115.803 41.3859 115.76 41.7452 115.674 42.0615C115.588 42.349 115.415 42.5646 115.157 42.7083C114.898 42.8808 114.495 42.9671 113.949 42.9671Z" fill="#2A2A2E"></path><path d="M79.3972 51.3332C78.7073 51.0457 78.3048 50.7151 78.1898 50.3413C78.0748 49.9676 78.1754 49.4501 78.4917 48.7889L89.9194 23.1304C90.2356 22.4692 90.5662 22.0667 90.9112 21.923C91.285 21.7505 91.8024 21.808 92.4637 22.0954C93.1536 22.4117 93.5418 22.7567 93.628 23.1304C93.743 23.5042 93.6568 24.0073 93.3693 24.6397L81.8553 50.4276C81.5678 51.0888 81.2516 51.4769 80.9066 51.5919C80.5616 51.7069 80.0585 51.6207 79.3972 51.3332ZM83.6665 40.2073L73.7912 24.9847C73.4175 24.4097 73.2737 23.9354 73.36 23.5616C73.4462 23.1592 73.7768 22.7711 74.3518 22.3973C74.9843 21.9948 75.4874 21.8511 75.8611 21.9661C76.2636 22.0523 76.6661 22.3829 77.0686 22.9579L85.4345 36.1106L83.6665 40.2073Z" fill="#2A2A2E"></path><path d="M63.6596 43.1826C62.9696 43.1826 62.2509 43.1107 61.5034 42.967C60.7559 42.8232 60.0228 42.622 59.3041 42.3632C58.6141 42.0757 57.996 41.7451 57.4498 41.3714C56.9323 40.9977 56.5442 40.5808 56.2854 40.1208C56.1417 39.8333 56.0554 39.5746 56.0267 39.3446C55.9979 39.0859 56.0411 38.8415 56.1561 38.6115C56.2711 38.3815 56.4436 38.1515 56.6735 37.9215C56.961 37.5765 57.2485 37.4184 57.536 37.4472C57.8235 37.4472 58.1829 37.634 58.6141 38.0078C58.9303 38.209 59.3041 38.439 59.7353 38.6977C60.1665 38.9277 60.6122 39.1434 61.0721 39.3446C61.5321 39.5171 61.9921 39.6752 62.4521 39.819C62.9408 39.9339 63.4152 39.9914 63.8752 39.9914C65.1976 39.9914 66.2613 39.7471 67.0663 39.2583C67.8713 38.7409 68.2738 38.0653 68.2738 37.2315C68.2738 36.7428 68.1731 36.326 67.9719 35.981C67.7707 35.636 67.4975 35.3485 67.1526 35.1185C66.8076 34.8598 66.4195 34.6441 65.9882 34.4716C65.557 34.2991 65.0683 34.141 64.522 33.9973C64.0045 33.8248 63.4871 33.6667 62.9696 33.5229C62.1934 33.3217 61.4315 33.0917 60.684 32.8329C59.9366 32.5742 59.261 32.2436 58.6572 31.8411C58.0535 31.4099 57.5648 30.878 57.191 30.2455C56.8173 29.5843 56.6304 28.7506 56.6304 27.7444C56.6304 26.5657 56.9323 25.5451 57.536 24.6826C58.1397 23.8201 58.9878 23.1589 60.0803 22.6989C61.1728 22.2102 62.4521 21.9658 63.9183 21.9658C64.5508 21.9658 65.1401 22.0089 65.6864 22.0952C66.2326 22.1814 66.7501 22.3252 67.2388 22.5264C67.7563 22.6989 68.245 22.9145 68.705 23.1733C69.165 23.4033 69.6106 23.6908 70.0418 24.0357C70.5593 24.3807 70.8324 24.7545 70.8612 25.157C70.8899 25.5594 70.7318 25.9763 70.3868 26.4075C70.1281 26.7813 69.8406 27.0256 69.5244 27.1406C69.2081 27.2269 68.8919 27.1406 68.5756 26.8819C68.1157 26.5369 67.6269 26.235 67.1094 25.9763C66.5919 25.7176 66.0601 25.5019 65.5139 25.3295C64.9676 25.157 64.407 25.0707 63.832 25.0707C63.1133 25.0707 62.4665 25.1857 61.8915 25.4157C61.3453 25.6169 60.914 25.9332 60.5978 26.3644C60.3103 26.7669 60.1665 27.2269 60.1665 27.7444C60.1665 28.2044 60.2815 28.5781 60.5115 28.8656C60.7703 29.1531 61.0865 29.3974 61.4603 29.5987C61.8627 29.7999 62.3227 29.9868 62.8402 30.1593C63.3864 30.303 63.947 30.4468 64.522 30.5905C65.3557 30.7918 66.2038 31.0361 67.0663 31.3236C67.9575 31.5824 68.7481 31.9417 69.4381 32.4017C70.1568 32.8329 70.7318 33.4223 71.163 34.1698C71.623 34.8885 71.853 35.8516 71.853 37.059C71.853 38.9565 71.1055 40.4514 69.6106 41.5439C68.1156 42.6364 66.132 43.1826 63.6596 43.1826Z" fill="#2A2A2E"></path><path d="M49.7212 42.9239C49.0887 42.9239 48.6287 42.7945 48.3412 42.5358C48.0825 42.277 47.9244 41.8745 47.8669 41.3283L48.0394 39.1721C47.7519 39.6321 47.3063 40.164 46.7025 40.7677C46.0988 41.3427 45.3082 41.8602 44.3308 42.3201C43.3533 42.7514 42.1602 42.967 40.7515 42.967C39.3716 42.967 38.0778 42.6939 36.8704 42.1476C35.6917 41.6014 34.6423 40.8396 33.7224 39.8621C32.8312 38.8846 32.1268 37.7634 31.6093 36.4985C31.1206 35.2335 30.8762 33.8823 30.8762 32.4449C30.8762 31.0362 31.1206 29.7137 31.6093 28.4775C32.1268 27.2125 32.8455 26.1057 33.7655 25.157C34.6855 24.2083 35.7348 23.4608 36.9135 22.9146C38.121 22.3683 39.4003 22.0952 40.7515 22.0952C42.0165 22.0952 43.0945 22.2677 43.9858 22.6127C44.877 22.9289 45.6388 23.3602 46.2713 23.9064C46.9325 24.4239 47.5075 25.0132 47.9963 25.6745L47.91 23.8633C47.8813 23.2308 48.0106 22.7852 48.2981 22.5265C48.6144 22.239 49.1031 22.0952 49.7643 22.0952C50.3106 22.0952 50.6987 22.1815 50.9287 22.354C51.1874 22.5265 51.3599 22.7708 51.4461 23.0871C51.5324 23.4033 51.5755 23.7914 51.5755 24.2514V40.8971C51.5755 41.2996 51.5324 41.6589 51.4461 41.9752C51.3599 42.2914 51.1874 42.5214 50.9287 42.6651C50.6699 42.8376 50.2674 42.9239 49.7212 42.9239ZM41.3984 39.3446C42.5483 39.3446 43.5977 39.0428 44.5464 38.439C45.5238 37.8353 46.2857 37.0303 46.8319 36.0241C47.4069 34.9891 47.6944 33.8104 47.6944 32.488C47.6944 31.1368 47.3925 29.9581 46.7888 28.9519C46.2138 27.9169 45.4376 27.1119 44.4601 26.5369C43.5114 25.9332 42.4621 25.6313 41.3121 25.6313C39.9609 25.6313 38.7822 25.9476 37.776 26.5801C36.7985 27.1838 36.0223 28.0031 35.4473 29.0381C34.8723 30.0731 34.5848 31.2518 34.5848 32.5742C34.5848 33.8679 34.8723 35.0323 35.4473 36.0672C36.0223 37.0734 36.8129 37.8784 37.8191 38.4821C38.8541 39.0571 40.0472 39.3446 41.3984 39.3446Z" fill="#2A2A2E"></path><path d="M18.4981 43.1827C16.7732 43.1827 15.2351 42.8952 13.8839 42.3202C12.5327 41.7452 11.3828 40.969 10.434 39.9915C9.51407 38.9853 8.80972 37.8354 8.32099 36.5417C7.83226 35.2479 7.58789 33.8536 7.58789 32.3587C7.58789 30.375 8.04787 28.6069 8.96784 27.0545C9.88781 25.502 11.1528 24.2802 12.7627 23.389C14.4014 22.469 16.2701 22.009 18.3688 22.009C19.8062 22.009 21.0855 22.239 22.2068 22.699C23.3567 23.1302 24.3342 23.7196 25.1392 24.4671C25.9441 25.2145 26.5622 26.0483 26.9935 26.9682C27.4247 27.8882 27.6403 28.8082 27.6403 29.7281C27.6403 31.1943 27.2953 32.2293 26.6054 32.833C25.9154 33.408 25.0673 33.6955 24.0611 33.6955H11.5984C11.5696 34.9605 11.9002 36.0529 12.5902 36.9729C13.3089 37.8641 14.2002 38.5541 15.2639 39.0428C16.3563 39.5316 17.4488 39.7759 18.5413 39.7759C19.3462 39.7759 20.0362 39.7328 20.6112 39.6465C21.1862 39.5603 21.6893 39.4453 22.1205 39.3016C22.5518 39.1578 22.9255 39.0141 23.2417 38.8703C23.558 38.7266 23.8311 38.5828 24.0611 38.4391C24.3198 38.2953 24.5642 38.1947 24.7942 38.1372C25.0529 38.0797 25.2973 38.1085 25.5273 38.2235C25.786 38.3097 25.9873 38.4966 26.131 38.7841C26.3035 39.0141 26.4185 39.2297 26.476 39.4309C26.5335 39.6322 26.5622 39.8478 26.5622 40.0778C26.5622 40.4803 26.2172 40.9259 25.5273 41.4146C24.8373 41.9033 23.8742 42.3202 22.638 42.6652C21.4305 43.0102 20.0506 43.1827 18.4981 43.1827ZM11.5984 31.1512H22.4224C22.9686 31.1512 23.3711 31.0793 23.6298 30.9356C23.9173 30.7919 24.0611 30.4037 24.0611 29.7713C24.0611 28.9663 23.8167 28.2476 23.328 27.6151C22.8392 26.9539 22.1636 26.422 21.3012 26.0195C20.4674 25.617 19.5044 25.4158 18.4119 25.4158C17.1469 25.4158 15.9826 25.6745 14.9189 26.192C13.8839 26.6807 13.0646 27.3563 12.4608 28.2188C11.8571 29.0813 11.5696 30.0588 11.5984 31.1512Z" fill="#2A2A2E"></path><path fill-rule="evenodd" clip-rule="evenodd" d="M25.2817 48.1777L25.8983 49.7192C26.3445 50.8346 26.8076 51.7414 27.5456 52.3973C28.2324 53.0078 29.3227 53.5422 31.3092 53.5422C33.2957 53.5422 34.386 53.0078 35.0728 52.3973C35.8108 51.7414 36.2739 50.8346 36.72 49.7192L37.3366 48.1777L40.4197 49.4109L39.8031 50.9524C39.3222 52.1546 38.6266 53.6811 37.2789 54.8791C35.8799 56.1226 33.9576 56.8627 31.3092 56.8627C28.6608 56.8627 26.7384 56.1226 25.3395 54.8791C23.9918 53.6811 23.2962 52.1546 22.8153 50.9524L22.1987 49.4109L25.2817 48.1777Z" fill="#EE45A0"></path><path fill-rule="evenodd" clip-rule="evenodd" d="M45.7513 7.51052L44.587 8.86005C43.0385 10.6549 41.5371 11.8553 39.9012 12.6269C38.2673 13.3975 36.3912 13.7911 34.021 13.8185L32.2388 13.8391L32.28 17.4036L34.0622 17.383C36.818 17.3511 39.223 16.888 41.4218 15.851C43.6187 14.8149 45.5017 13.2569 47.2861 11.1886L48.4504 9.83911L45.7513 7.51052Z" fill="#3D5FE7"></path></svg>